<svg width="200" height="200" viewBox="0 0 200 200" fill="none" xmlns="http://www.w3.org/2000/svg">
<path d="M48.002 188.598H152.773C163.267 188.571 171.771 180.057 171.771 169.555V83.0104C171.771 72.4904 163.245 63.9634 152.728 63.9634H65.814V98.9453L65.787 100.375H29V169.555C29 180.057 37.5 188.571 47.998 188.598H48.002Z" fill="url(#paint0_linear_2864_136)"/>
<path d="M60.4699 63.9985L29.4349 95.0186H60.4699V63.9985Z" fill="#2969D5"/>
<path d="M48.058 188.598H152.738C163.258 188.598 171.783 180.069 171.783 169.555V156.387C152.004 152.604 127.252 150.356 100.398 150.356C73.543 150.356 48.793 152.604 29.011 156.387V169.555C29.011 180.069 37.536 188.598 48.056 188.598H48.058Z" fill="url(#paint1_linear_2864_136)"/>
<path d="M76.103 58.4524L68.392 58.4495C64.931 58.4495 63.052 54.8835 63.052 52.8285C63.052 49.3675 67.072 46.2195 69.974 42.6645C78.398 32.3205 85.642 23.1035 95.021 13.0105C97.429 10.4185 102.033 10.2425 104.638 13.0105C114.087 23.0475 121.265 32.3215 129.687 42.6645C132.587 46.2195 136.607 49.3675 136.607 52.8285C136.607 54.8835 134.73 58.4495 131.267 58.4495L123.556 58.4524V102.264C123.556 106.623 119.818 110.16 115.206 110.16H84.453C79.843 110.16 76.102 106.623 76.102 102.264V58.4524H76.103Z" fill="#88FC4A"/>
<path d="M84.495 110.16H115.25C119.859 110.16 123.6 106.623 123.6 102.26V63.9614H76.147V102.26C76.146 106.623 79.885 110.16 84.495 110.16Z" fill="url(#paint2_linear_2864_136)"/>
<path d="M118.117 156.74L117.867 156.767C117.951 156.762 118.033 156.754 118.117 156.74ZM146.281 98.3405C148.543 100.319 164.418 109.672 158.228 116.858L122.38 158.886C121.345 160.091 119.849 160.859 118.271 160.99C98.392 163.398 100.761 165.436 100.361 145.403C100.247 143.858 100.715 142.257 101.818 140.979L137.668 98.9504C139.869 96.3914 143.738 96.1055 146.281 98.3405ZM108.838 145.805L109 153.578L116.543 152.672L150.279 113.119L140.691 104.707C141.31 104.668 141.943 104.857 142.447 105.297C142.883 104.795 143.488 104.51 144.099 104.465L108.838 145.805Z" fill="#24C8FE"/>
<path d="M131.087 167.124H51.931V174.919H131.087V167.124Z" fill="#24C8FE"/>
<defs>
<linearGradient id="paint0_linear_2864_136" x1="28.7867" y1="148.38" x2="173.37" y2="109.303" gradientUnits="userSpaceOnUse">
<stop stop-color="#00DBDB"/>
<stop offset="1" stop-color="#3647D3"/>
</linearGradient>
<linearGradient id="paint1_linear_2864_136" x1="29.959" y1="165.964" x2="168.543" y2="175.359" gradientUnits="userSpaceOnUse">
<stop stop-color="#1B2BBB"/>
<stop offset="0.6138" stop-color="#0D6DD2"/>
<stop offset="0.9677" stop-color="#068FDE"/>
</linearGradient>
<linearGradient id="paint2_linear_2864_136" x1="112.147" y1="110.661" x2="89.9624" y2="62.3721" gradientUnits="userSpaceOnUse">
<stop stop-color="#99FD63"/>
<stop offset="1" stop-color="#3C83A9"/>
</linearGradient>
</defs>
</svg>
